#Comment line ignore any data following # character
#Hierarchical Translation and Rotation (.htr) file
[Header]		#Header keywords are followed by a single value
FileType htr		#Single word string
DataType HTRS		#Translation followed by rotation and scale data
FileVersion 1		#integer
NumSegments 18		#integer
NumFrames 8		#integer
DataFrameRate 60		#integer, data frame rate in this file
EulerRotationOrder ZYX
CalibrationUnits mm
RotationUnits Degrees
GlobalAxisofGravity Y
BoneLengthAxis Y
ScaleFactor 1.000000
[SegmentNames&Hierarchy]
#CHILD	PARENT
Head	Neck
Neck	Chest
Chest	Hips
LeftShoulder	LeftCollar
RightShoulder	RightCollar
LeftElbow	LeftShoulder
RightElbow	RightShoulder
LeftWrist	LeftElbow
RightWrist	RightElbow
Hips	GLOBAL
LeftHip	Hips
RightHip	Hips
LeftKnee	LeftHip
RightKnee	RightHip
LeftAnkle	LeftKnee
RightAnkle	RightKnee
LeftCollar	Chest
RightCollar	Chest
[BasePosition]
#SegmentName Tx, Ty, Tz, Rx, Ry, Rz, BoneLength
Head	0.000003	141.966248	0.000002	-37.745777	-8.179454	6.203664	80.000046
Neck	0.000000	379.566772	0.000000	32.855431	-5.194619	1.823337	141.966263
Chest	0.000000	94.891693	0.000000	0.000002	12.877405	-0.000012	379.566803
LeftShoulder	0.000003	154.023666	0.000005	171.957962	-79.977570	-157.094910	215.219986
RightShoulder	-0.000001	146.408707	-0.000001	20.020029	60.865143	-8.207462	240.139038
LeftElbow	0.000007	215.219971	-0.000011	-24.162848	54.442085	-17.491318	336.440125
RightElbow	-0.000021	240.139038	0.000007	-21.925606	-43.617706	23.102211	322.101532
LeftWrist	-0.000014	336.440094	0.000002	173.178864	-0.531422	156.628021	100.348160
RightWrist	0.000005	322.101501	0.000026	1.868945	1.747480	14.125610	109.739998
Hips	377.886597	1077.530640	704.474976	-179.011169	36.455761	-178.006714	94.891701
LeftHip	95.336761	5.238981	-8.336124	-0.485735	-9.415434	-176.117065	525.916443
RightHip	-96.119095	-4.691877	-4.857316	2.457280	-1.423929	-179.125565	528.302429
LeftKnee	0.000004	525.916443	0.000001	-10.646533	-14.541370	-1.855900	514.711975
RightKnee	-0.000002	528.302429	0.000004	-12.768950	2.118825	-3.063609	521.764099
LeftAnkle	0.000003	514.711975	0.000009	97.965164	-0.000001	0.000000	253.446518
RightAnkle	0.000001	521.764099	-0.000002	99.242271	0.000002	0.000000	256.283173
LeftCollar	19.999998	366.483276	-15.126845	169.660507	-4.312743	90.901894	154.023682
RightCollar	-19.999996	366.483215	-15.126822	171.369568	4.171492	-91.645760	146.408707
#Beginning of Data. Separated by tabs
[Head]
#Fr	Tx	Ty	Tz	Rx	Ry	Rz	SF
145	-0.000004	10.948853	0.000001	-11.038162	-12.070723	12.776413	0.999999
146	-0.000008	11.309097	0.000006	-10.800128	-10.341889	12.483759	0.999999
147	-0.000005	11.520981	-0.000005	-9.937047	-8.582324	12.726961	1.000000
148	-0.000002	11.974670	0.000007	-9.414776	-6.608020	12.613870	1.000000
149	-0.000001	12.635498	0.000008	-8.992194	-4.585876	12.475070	1.000000
150	-0.000000	13.035782	0.000001	-8.295666	-2.566231	12.289918	1.000000
151	-0.000002	13.568451	0.000007	-7.702507	-0.606556	12.228276	0.999999
152	-0.000011	14.050125	-0.000004	-6.935149	1.211907	12.384581	1.000000
[Neck]
#Fr	Tx	Ty	Tz	Rx	Ry	Rz	SF
145	0.000001	-14.282501	-0.000013	-5.358545	-3.836258	-3.139631	1.077123
146	-0.000004	-14.542877	0.000006	-5.612605	-3.499701	-3.096201	1.079660
147	-0.000009	-14.827942	0.000005	-5.949131	-3.195454	-3.352780	1.081153
148	0.000020	-15.264984	0.000004	-6.110297	-2.780415	-3.501717	1.084349
149	0.000014	-15.668762	0.000009	-6.199176	-2.318083	-3.702257	1.089003
150	-0.000003	-16.051880	-0.000003	-6.338114	-1.809073	-3.993276	1.091823
151	-0.000008	-16.385529	0.000014	-6.373768	-1.306088	-4.348145	1.095575
152	-0.000016	-16.735016	-0.000002	-6.458872	-0.831945	-4.835600	1.098968
[Chest]
#Fr	Tx	Ty	Tz	Rx	Ry	Rz	SF
145	0.000001	-3.570580	0.000000	0.000024	4.710613	0.000000	0.962371
146	-0.000000	-3.635651	0.000000	-0.000015	4.545520	0.000004	0.961685
147	0.000000	-3.706947	0.000001	-0.000009	4.389372	0.000006	0.960935
148	-0.000000	-3.816254	-0.000001	0.000003	4.071896	0.000011	0.959783
149	-0.000001	-3.917145	-0.000001	-0.000018	3.522716	0.000012	0.958719
150	-0.000001	-4.012917	-0.000001	0.000011	2.993565	-0.000002	0.957710
151	0.000001	-4.096397	0.000001	-0.000016	2.402107	0.000021	0.956831
152	-0.000001	-4.183792	0.000001	0.000001	1.747352	0.000014	0.955910
[LeftShoulder]
#Fr	Tx	Ty	Tz	Rx	Ry	Rz	SF
145	-0.000010	14.161591	-0.000012	49.541759	9.241703	-8.200974	1.212360
146	0.000000	13.917496	-0.000001	50.328926	8.693739	-8.292482	1.212195
147	-0.000000	13.651611	-0.000016	51.159431	8.104466	-7.908761	1.210539
148	-0.000003	13.274979	-0.000014	51.974632	7.380374	-7.032357	1.206912
149	-0.000003	12.899872	-0.000010	52.733250	6.433704	-5.671072	1.201000
150	0.000005	12.535629	0.000003	53.319164	5.241363	-3.847630	1.192825
151	-0.000000	12.168732	-0.000003	53.644321	3.803308	-1.548097	1.182731
152	-0.000015	11.790894	-0.000011	53.612255	2.110043	1.210826	1.171064
[RightShoulder]
#Fr	Tx	Ty	Tz	Rx	Ry	Rz	SF
145	-0.000001	11.301117	-0.000003	54.427265	-47.999947	-73.460640	1.115240
146	0.000001	11.284531	-0.000011	53.702759	-46.953575	-72.320274	1.117908
147	0.000001	11.272522	0.000009	52.930004	-45.972443	-71.150314	1.120045
148	0.000005	11.305481	-0.000005	52.184269	-45.097160	-70.056976	1.121636
149	0.000000	11.391327	0.000001	51.469730	-44.339672	-69.034576	1.122717
150	0.000006	11.497208	-0.000001	50.815968	-43.695751	-68.115005	1.123210
151	0.000000	11.586563	0.000002	50.210056	-43.186481	-67.316948	1.123325
152	-0.000002	11.679153	0.000003	49.660225	-42.771217	-66.662071	1.123042
[LeftElbow]
#Fr	Tx	Ty	Tz	Rx	Ry	Rz	SF
145	-0.000014	45.704193	0.000027	-50.475491	-69.228912	56.785290	0.878164
146	-0.000018	45.668610	0.000011	-48.635468	-69.087379	54.972019	0.877506
147	-0.000011	45.312134	0.000005	-48.159023	-68.985565	54.545296	0.874663
148	-0.000003	44.531708	0.000033	-49.254478	-68.966469	55.726959	0.869618
149	-0.000005	43.259186	0.000009	-51.872856	-68.958099	58.454357	0.862407
150	-0.000002	41.499878	0.000016	-55.729420	-68.845215	62.428883	0.853042
151	0.000007	39.327469	-0.000003	-60.592361	-68.526337	67.419052	0.842494
152	0.000007	36.816315	-0.000001	-65.797020	-67.879929	72.721748	0.831533
[RightElbow]
#Fr	Tx	Ty	Tz	Rx	Ry	Rz	SF
145	0.000008	27.673492	-0.000015	-14.929585	18.179487	9.642459	0.905699
146	0.000031	28.314240	-0.000019	-13.870936	18.296270	8.459299	0.910836
147	0.000026	28.827393	0.000018	-13.131741	18.726873	7.447547	0.914494
148	0.000039	29.209473	-0.000010	-12.630425	19.272951	6.640066	0.916655
149	0.000029	29.469086	0.000020	-12.397557	20.024801	5.985038	0.917636
150	0.000024	29.587555	-0.000023	-12.375270	20.825857	5.503309	0.917874
151	0.000055	29.615234	0.000008	-12.584614	21.837019	5.094248	0.917313
152	0.000029	29.547150	-0.000006	-12.983232	22.988678	4.733267	0.916390
[LeftWrist]
#Fr	Tx	Ty	Tz	Rx	Ry	Rz	SF
145	-0.000001	-40.990448	-0.000002	-62.095932	-73.875664	27.262890	1.038712
146	0.000017	-41.211823	-0.000002	-59.827553	-75.190193	26.477654	1.043892
147	-0.000020	-42.168274	0.000001	-57.177223	-76.407394	25.338123	1.046940
148	0.000009	-43.865723	0.000021	-54.232952	-77.592308	24.025482	1.046521
149	0.000023	-46.291687	-0.000026	-51.116276	-78.663200	22.674210	1.042949
150	0.000007	-49.442566	-0.000001	-47.867237	-79.709808	21.224592	1.036441
151	0.000034	-52.991180	-0.000024	-44.265804	-80.769600	19.416891	1.024803
152	0.000022	-56.678802	-0.000019	-40.434185	-81.758263	17.222240	1.009474
[RightWrist]
#Fr	Tx	Ty	Tz	Rx	Ry	Rz	SF
145	-0.000009	-30.374512	-0.000027	-80.391098	87.181389	-80.099800	0.901247
146	0.000009	-28.719635	-0.000030	-74.191154	87.364189	-75.529259	0.911513
147	-0.000011	-27.541565	-0.000033	-68.503952	87.474014	-71.537186	0.922407
148	-0.000000	-26.845459	-0.000037	-64.198380	87.478661	-68.970367	0.933512
149	0.000008	-26.529633	-0.000014	-60.486061	87.412109	-67.054970	0.943276
150	0.000011	-26.453003	-0.000003	-58.002533	87.296745	-66.222626	0.952572
151	-0.000014	-26.633636	-0.000021	-54.931625	87.196327	-64.812447	0.959190
152	0.000008	-26.930878	-0.000031	-51.742943	87.123650	-63.082413	0.963742
[Hips]
#Fr	Tx	Ty	Tz	Rx	Ry	Rz	SF
145	-1107.337891	22.256958	-639.335571	69.189690	-67.072739	-58.600048	0.962372
146	-1102.820923	23.036987	-644.506714	73.828697	-67.780991	-63.720821	0.961686
147	-1098.589355	24.106323	-649.465454	79.145737	-68.376701	-69.560013	0.960935
148	-1094.291016	25.394287	-654.526306	84.736748	-68.840973	-75.698624	0.959783
149	-1090.632080	26.869873	-659.625549	90.254936	-69.104721	-81.697441	0.958720
150	-1087.499512	28.489746	-664.703674	96.044731	-69.175240	-87.951477	0.957710
151	-1084.849854	30.171387	-669.504700	101.538315	-69.036186	-93.881615	0.956831
152	-1082.536743	31.835083	-674.214417	106.647224	-68.743500	-99.390968	0.955910
[LeftHip]
#Fr	Tx	Ty	Tz	Rx	Ry	Rz	SF
145	0.662704	12.511690	1.539955	24.946186	-2.254809	13.806247	0.997485
146	0.671997	12.736996	1.300719	23.766073	-2.162013	14.093472	0.996572
147	0.524475	12.770332	0.840503	22.448296	-2.202951	14.379925	0.995606
148	0.326431	12.749573	0.415660	20.939425	-2.153749	14.605515	0.994554
149	0.101723	12.657280	0.158237	19.481855	-2.045892	14.812295	0.993202
150	-0.021255	12.510809	-0.297777	17.991831	-1.968931	14.932822	0.992179
151	-0.245575	12.259987	-0.810013	16.551458	-1.932154	15.049793	0.991056
152	-0.379410	12.036469	-1.052381	15.087270	-1.911356	15.114779	0.989907
[RightHip]
#Fr	Tx	Ty	Tz	Rx	Ry	Rz	SF
145	0.975830	-14.744680	-0.823335	11.569386	-0.443641	9.538640	1.003578
146	0.982582	-14.988632	-1.315944	11.476074	-0.439245	9.465387	1.004481
147	0.974937	-14.998959	-1.282411	11.281178	-0.485861	9.408736	1.006292
148	1.079437	-14.962547	-1.570222	11.115419	-0.483003	9.230788	1.008515
149	1.284271	-14.833038	-2.093551	11.168263	-0.433673	9.033127	1.010680
150	1.286453	-14.650032	-2.284474	11.337626	-0.490015	8.867754	1.012660
151	1.357330	-14.353842	-2.382769	11.525105	-0.554546	8.708795	1.014990
152	1.361839	-14.048407	-2.277772	11.794310	-0.595749	8.569222	1.017345
[LeftKnee]
#Fr	Tx	Ty	Tz	Rx	Ry	Rz	SF
145	-0.000011	-1.322571	0.000001	-17.755983	9.188061	9.700521	0.986248
146	0.000008	-1.802856	0.000009	-17.687880	7.114538	9.721943	0.987143
147	-0.000007	-2.310852	-0.000000	-17.459763	5.055974	9.658287	0.987846
148	0.000009	-2.864014	0.000022	-16.974897	2.834887	9.452041	0.988088
149	-0.000018	-3.575256	0.000000	-16.369289	0.687323	9.071257	0.988394
150	-0.000015	-4.113098	-0.000005	-15.607019	-1.435619	8.652718	0.988243
151	0.000012	-4.703735	-0.000003	-14.772847	-3.432214	8.115681	0.988087
152	0.000002	-5.308044	-0.000004	-13.748951	-5.261522	7.433972	0.987442
[RightKnee]
#Fr	Tx	Ty	Tz	Rx	Ry	Rz	SF
145	0.000004	1.890015	-0.000015	-1.261228	18.534956	2.273206	0.991230
146	-0.000008	2.367615	0.000012	-1.714405	16.520962	1.991144	0.990736
147	-0.000009	3.324219	-0.000004	-2.009601	14.476669	1.778967	0.988762
148	0.000004	4.498352	-0.000011	-2.333267	12.385227	1.643339	0.986384
149	-0.000001	5.642212	0.000018	-2.869370	10.464297	1.512820	0.984255
150	0.000008	6.688416	-0.000018	-3.540096	8.664696	1.352684	0.982371
151	0.000029	7.919006	0.000004	-4.132879	7.138155	1.305734	0.980108
152	-0.000002	9.163208	-0.000025	-4.843081	5.814709	1.268356	0.977792
[LeftAnkle]
#Fr	Tx	Ty	Tz	Rx	Ry	Rz	SF
145	-0.000002	-7.078278	0.000024	5.627754	0.000001	-0.000000	1.028215
146	-0.000010	-6.617798	-0.000033	5.638383	0.000000	-0.000001	1.028609
147	-0.000014	-6.255737	-0.000013	5.568411	-0.000000	-0.000001	1.028969
148	-0.000009	-6.131500	-0.000004	5.377502	-0.000000	-0.000001	1.029280
149	-0.000009	-5.973999	0.000009	5.100357	-0.000000	-0.000002	1.029511
150	-0.000017	-6.051544	-0.000023	4.764324	-0.000000	-0.000001	1.029434
151	0.000013	-6.131897	-0.000005	4.383731	-0.000001	-0.000000	1.029609
152	0.000028	-6.463501	0.000034	3.915049	0.000000	-0.000001	1.029486
[RightAnkle]
#Fr	Tx	Ty	Tz	Rx	Ry	Rz	SF
145	-0.000019	-4.575989	0.000004	-5.209922	-0.000000	0.000003	1.003633
146	-0.000014	-4.833618	-0.000020	-5.801449	0.000002	0.000003	1.003259
147	0.000032	-5.863403	-0.000020	-6.549933	0.000001	0.000001	1.003491
148	0.000021	-7.104370	-0.000022	-7.338991	0.000000	0.000001	1.003239
149	-0.000025	-8.215149	0.000009	-8.163878	-0.000001	0.000002	1.003270
150	-0.000005	-9.198181	-0.000000	-8.991730	-0.000000	-0.000000	1.002942
151	-0.000011	-10.379150	-0.000003	-9.877631	-0.000000	0.000003	1.003191
152	-0.000017	-11.587494	0.000012	-10.725080	-0.000000	0.000000	1.002658
[LeftCollar]
#Fr	Tx	Ty	Tz	Rx	Ry	Rz	SF
145	-0.000019	-13.530304	-0.619257	2.783871	1.402546	10.573710	1.091944
146	-0.000006	-13.802948	-0.609625	2.786175	1.344021	10.636482	1.090359
147	0.000015	-14.110657	-0.591833	2.747930	1.256737	10.665184	1.088633
148	0.000025	-14.572388	-0.572337	2.741722	1.155247	10.720984	1.086188
149	0.000008	-15.027679	-0.531543	2.748353	0.960287	10.736016	1.083752
150	-0.000021	-15.484772	-0.472523	2.695209	0.694189	10.704722	1.081388
151	0.000021	-15.907654	-0.400493	2.552320	0.391372	10.575352	1.079005
152	0.000000	-16.359253	-0.317089	2.373696	0.050097	10.375263	1.076552
[RightCollar]
#Fr	Tx	Ty	Tz	Rx	Ry	Rz	SF
145	-0.000021	-13.530243	-0.619255	-7.366858	-2.849140	-6.264385	1.077189
146	0.000000	-13.802856	-0.609606	-7.343385	-2.796963	-6.283985	1.077076
147	-0.000008	-14.110565	-0.591868	-7.357351	-2.712856	-6.311915	1.076994
148	0.000023	-14.572388	-0.572385	-7.453382	-2.630700	-6.275591	1.077219
149	0.000004	-15.027649	-0.531574	-7.602153	-2.457955	-6.199303	1.077805
150	0.000011	-15.484741	-0.472487	-7.777907	-2.207086	-6.092418	1.078528
151	0.000011	-15.907562	-0.400501	-7.914863	-1.894499	-5.987307	1.079138
152	-0.000011	-16.359161	-0.317107	-8.025178	-1.528111	-5.841212	1.079771
[EndOfFile]
